<svg xmlns="http://www.w3.org/2000/svg" viewBox="0 0 103.78 37"><defs><style>.cls-1{fill:#100f0d;}</style></defs><title>kip-logo</title><g id="Слой_2" data-name="Слой 2"><g id="svg2"><g id="g8"><g id="g10"><path id="path12" class="cls-1" d="M34.26,10.14H27.64V37h4.11V29.86h4c5.71,0,9.45-3.38,9.45-9.86,0-5.66-4.56-9.86-11-9.86m.41,18.26H31.75V11.6h1.14c6.89,0,7.53,5.66,7.53,9.31,0,4.43-1.74,7.49-5.75,7.49"/><path id="path14" class="cls-1" d="M52.41,0V27.81c0,.36.09.59.59.59h2.74v1.46H51c-2.33,0-2.74-1.24-2.74-2.7V0h4.11"/><path id="path16" class="cls-1" d="M66.79,29.86V13.11a2.71,2.71,0,0,1,3-3A3.57,3.57,0,0,1,73,12c4.06,5.88,7,10.68,7.3,10.68s.32,0,.32-.46v-12h1.92V28.35c0,1.28,0,2-1.28,2s-1.6-.91-2.37-2.1l-1.6-2.37C70.34,15.34,69.52,13.61,69,13.61c-.23,0-.32.18-.32.59V29.86H66.79"/><path id="path18" class="cls-1" d="M101.37,15c-1.33-1.92-2.56-3.88-5-3.88-4.42,0-5.47,5.2-5.47,9,0,3.69,1.28,8.76,5.66,8.76,1.5,0,3.47-1.64,3.47-4.29V20.09h3.78V37H100V28.71a8.17,8.17,0,0,1-4.61,1.65c-6.12,0-9.31-4.7-9.31-10.13,0-6.21,3.47-10.59,9.72-10.59a8.47,8.47,0,0,1,7.25,4.2L101.37,15h0"/><path id="path20" class="cls-1" d="M58.68,29.86h4.11V10.14H58.68V29.86h0"/><path id="path22" class="cls-1" d="M24.27,4a2.7,2.7,0,0,1-5.39,0,2.7,2.7,0,0,1,5.39,0"/><path id="path24" class="cls-1" d="M63.43,4A2.7,2.7,0,0,1,58,4a2.7,2.7,0,0,1,5.39,0"/><path id="path26" class="cls-1" d="M19.52,10.14h4.11V29.86H19.52V10.14h0"/><path id="path28" class="cls-1" d="M0,0V29.86H4.11V20.73H4.2l7.3,9.13h5.34L8.08,18.63l6.7-8.49H12.09L4.2,20.27H4.11V0H0"/></g></g></g></g></svg>